<svg width="35" height="45" viewBox="0 0 35 45" fill="none" xmlns="http://www.w3.org/2000/svg">
<path fill-rule="evenodd" clip-rule="evenodd" d="M23.8551 32.4438V22.1798V20.5438V14.409H22.2191V20.5438V22.1877V26.4191V32.4438C22.2191 35.4483 20.9371 38.1461 18.8843 40.0337C19.4034 40.3169 19.9461 40.545 20.5124 40.7259C21.1652 40.0495 21.7393 39.2944 22.2191 38.4764C23.2573 36.7068 23.8551 34.6461 23.8551 32.4438ZM33.3719 26.4191V32.4438C33.3719 37.8708 29.1798 42.3146 23.8551 42.7157C23.5955 42.7315 23.336 42.7393 23.0764 42.7393C22.7854 42.7393 22.5022 42.7315 22.2191 42.7079C21.1337 42.6214 20.0955 42.3618 19.1281 41.9607C18.5539 41.7247 18.0112 41.4337 17.5 41.1034C14.6685 39.2787 12.7888 36.1011 12.7809 32.491C12.7809 32.4753 12.7809 32.4596 12.7809 32.4438V32.4045V26.4191V22.1877V20.5438V14.409V12.7809H11.1449V14.409V20.5438V22.1798V32.4438C11.1449 34.6461 11.7427 36.7068 12.7809 38.4764C13.5753 39.8292 14.6292 41.0169 15.8719 41.9607C16.3831 42.3461 16.9258 42.6922 17.5 42.9989C18.9236 43.754 20.5281 44.2259 22.2191 44.3438C22.5022 44.3674 22.7854 44.3753 23.0764 44.3753C23.336 44.3753 23.5955 44.3674 23.8551 44.3517C27.9135 44.0843 31.4213 41.7955 33.3719 38.4764C34.4101 36.7068 35 34.6461 35 32.4438V14.409H33.3719V26.4191ZM14.1809 42.7393C14.1022 42.6764 14.0315 42.6056 13.9528 42.5427C13.5674 42.6214 13.1742 42.6764 12.7809 42.7079C12.4978 42.7315 12.2146 42.7393 11.9236 42.7393C11.664 42.7393 11.4045 42.7315 11.1449 42.7157C5.83595 42.3146 1.65169 37.8944 1.62809 32.491C1.62809 32.4753 1.62809 32.4596 1.62809 32.4438C1.62809 32.436 1.62809 32.4202 1.62809 32.4045V26.4191V1.63596H11.1449V11.1449V12.773H12.7809V11.1449V1.63596V0H11.1449H1.62809H0V1.63596V32.4438C0 34.6461 0.589888 36.7068 1.62809 38.4764C3.57865 41.7955 7.08652 44.0843 11.1449 44.3517C11.4045 44.3674 11.664 44.3753 11.9236 44.3753C12.2146 44.3753 12.4978 44.3674 12.7809 44.3438C13.7483 44.2731 14.6921 44.0922 15.5809 43.8011C15.1011 43.4865 14.6449 43.1405 14.2124 42.7708C14.2045 42.7629 14.1888 42.7472 14.1809 42.7393ZM12.7809 32.4438V32.4045C12.7809 32.4202 12.7809 32.436 12.7809 32.4438ZM33.3719 11.1449H23.8551V1.63596H33.3719V11.1449ZM23.8551 12.773H33.3719H35V11.1449V1.63596V0H33.3719H23.8551H22.2191V1.63596V11.1449V12.773H23.8551Z" fill="#FEFEFE"/>
</svg>
